<svg xmlns="http://www.w3.org/2000/svg" xmlns:xlink="http://www.w3.org/1999/xlink" contentStyleType="text/css" data-diagram-type="ACTIVITY" height="1385px" preserveAspectRatio="none" style="width:928px;height:1385px;background:#FFFFFF;" version="1.1" viewBox="0 0 928 1385" width="928px" zoomAndPan="magnify"><defs/><g><ellipse cx="475.124" cy="20" fill="#222222" rx="10" ry="10" style="stroke:#222222;stroke-width:1;"/><rect fill="#F1F1F1" height="38.625" rx="12.5" ry="12.5" style="stroke:#333333;stroke-width:0.5;" width="284.2422" x="333.0029" y="50"/><text fill="#000000" font-family="sans-serif" font-size="16" lengthAdjust="spacing" textLength="264.2422" x="343.0029" y="74.8516">Initialize application components</text><rect fill="#F1F1F1" height="38.625" rx="12.5" ry="12.5" style="stroke:#333333;stroke-width:0.5;" width="82.3516" x="433.9482" y="108.625"/><text fill="#000000" font-family="sans-serif" font-size="16" lengthAdjust="spacing" textLength="62.3516" x="443.9482" y="133.4766">down-&gt;</text><rect fill="#F1F1F1" height="38.625" rx="12.5" ry="12.5" style="stroke:#333333;stroke-width:0.5;" width="211.6484" x="369.2998" y="167.25"/><text fill="#000000" font-family="sans-serif" font-size="16" lengthAdjust="spacing" textLength="191.6484" x="379.2998" y="192.1016">Create concrete classes</text><rect fill="#F1F1F1" height="38.625" rx="12.5" ry="12.5" style="stroke:#333333;stroke-width:0.5;" width="82.3516" x="433.9482" y="225.875"/><text fill="#000000" font-family="sans-serif" font-size="16" lengthAdjust="spacing" textLength="62.3516" x="443.9482" y="250.7266">down-&gt;</text><rect fill="#F1F1F1" height="38.625" rx="12.5" ry="12.5" style="stroke:#333333;stroke-width:0.5;" width="368.5625" x="290.8428" y="284.5"/><text fill="#000000" font-family="sans-serif" font-size="16" lengthAdjust="spacing" textLength="348.5625" x="300.8428" y="309.3516">Inject dependencies into TextPredictionApp</text><rect fill="#F1F1F1" height="38.625" rx="12.5" ry="12.5" style="stroke:#333333;stroke-width:0.5;" width="82.3516" x="433.9482" y="343.125"/><text fill="#000000" font-family="sans-serif" font-size="16" lengthAdjust="spacing" textLength="62.3516" x="443.9482" y="367.9766">down-&gt;</text><rect fill="#F1F1F1" height="38.625" rx="12.5" ry="12.5" style="stroke:#333333;stroke-width:0.5;" width="129.5" x="410.374" y="401.75"/><text fill="#000000" font-family="sans-serif" font-size="16" lengthAdjust="spacing" textLength="109.5" x="420.374" y="426.6016">Call app.run()</text><rect fill="#F1F1F1" height="38.625" rx="12.5" ry="12.5" style="stroke:#333333;stroke-width:0.5;" width="82.3516" x="433.9482" y="460.375"/><text fill="#000000" font-family="sans-serif" font-size="16" lengthAdjust="spacing" textLength="62.3516" x="443.9482" y="485.2266">down-&gt;</text><rect fill="none" height="823.6597" style="stroke:#000000;stroke-width:1.5;" width="906.375" x="11" y="509"/><path d="M175.3623,509 L175.3623,518.2969 L165.3623,528.2969 L11,528.2969" fill="none" style="stroke:#000000;stroke-width:1.5;"/><text fill="#000000" font-family="sans-serif" font-size="14" lengthAdjust="spacing" textLength="154.3623" x="14" y="522.9951">Main Application Loop</text><rect fill="#F1F1F1" height="38.625" rx="12.5" ry="12.5" style="stroke:#333333;stroke-width:0.5;" width="351.5" x="299.374" y="601.0073"/><text fill="#000000" font-family="sans-serif" font-size="16" lengthAdjust="spacing" textLength="331.5" x="309.374" y="625.8589">Display current text and prompt for input</text><rect fill="#F1F1F1" height="38.625" rx="12.5" ry="12.5" style="stroke:#333333;stroke-width:0.5;" width="82.3516" x="433.9482" y="659.6323"/><text fill="#000000" font-family="sans-serif" font-size="16" lengthAdjust="spacing" textLength="62.3516" x="443.9482" y="684.4839">down-&gt;</text><rect fill="#F1F1F1" height="38.625" rx="12.5" ry="12.5" style="stroke:#333333;stroke-width:0.5;" width="134.7422" x="407.7529" y="718.2573"/><text fill="#000000" font-family="sans-serif" font-size="16" lengthAdjust="spacing" textLength="114.7422" x="417.7529" y="743.1089">Get user input</text><rect fill="#F1F1F1" height="38.625" rx="12.5" ry="12.5" style="stroke:#333333;stroke-width:0.5;" width="82.3516" x="433.9482" y="776.8823"/><text fill="#000000" font-family="sans-serif" font-size="16" lengthAdjust="spacing" textLength="62.3516" x="443.9482" y="801.7339">down-&gt;</text><polygon fill="#D3D3D3" points="391.4482,835.5073,558.7998,835.5073,570.7998,847.5073,558.7998,859.5073,391.4482,859.5073,379.4482,847.5073,391.4482,835.5073" style="stroke:#333333;stroke-width:0.5;"/><text fill="#000000" font-family="sans-serif" font-size="16" lengthAdjust="spacing" textLength="167.3516" x="391.4482" y="853.0464">is input a command?</text><text fill="#000000" font-family="sans-serif" font-size="11" lengthAdjust="spacing" textLength="19.0083" x="360.4399" y="844.9131">yes</text><text fill="#000000" font-family="sans-serif" font-size="11" lengthAdjust="spacing" textLength="13.7017" x="570.7998" y="844.9131">no</text><polygon fill="#D3D3D3" points="193.2012,869.5073,286.5527,869.5073,298.5527,881.5073,286.5527,893.5073,193.2012,893.5073,181.2012,881.5073,193.2012,869.5073" style="stroke:#333333;stroke-width:0.5;"/><text fill="#000000" font-family="sans-serif" font-size="16" lengthAdjust="spacing" textLength="93.3516" x="193.2012" y="887.0464">input == '!'</text><text fill="#000000" font-family="sans-serif" font-size="11" lengthAdjust="spacing" textLength="19.0083" x="162.1929" y="878.9131">yes</text><text fill="#000000" font-family="sans-serif" font-size="11" lengthAdjust="spacing" textLength="68.9863" x="298.5527" y="878.9131">input == '#'</text><rect fill="#F1F1F1" height="38.625" rx="12.5" ry="12.5" style="stroke:#333333;stroke-width:0.5;" width="155.4766" x="41" y="903.5073"/><text fill="#000000" font-family="sans-serif" font-size="16" lengthAdjust="spacing" textLength="135.4766" x="51" y="928.3589">Display final text</text><ellipse cx="118.7383" cy="988.1323" fill="none" rx="11" ry="11" style="stroke:#222222;stroke-width:1;"/><ellipse cx="118.7383" cy="988.1323" fill="#222222" rx="6" ry="6" style="stroke:#222222;stroke-width:1;"/><rect fill="#F1F1F1" height="38.625" rx="12.5" ry="12.5" style="stroke:#333333;stroke-width:0.5;" width="270.2109" x="225.9102" y="903.5073"/><text fill="#000000" font-family="sans-serif" font-size="16" lengthAdjust="spacing" textLength="250.2109" x="235.9102" y="928.3589">Get last word from current text</text><rect fill="#F1F1F1" height="38.625" rx="12.5" ry="12.5" style="stroke:#333333;stroke-width:0.5;" width="289.0781" x="216.4766" y="977.1323"/><text fill="#000000" font-family="sans-serif" font-size="16" lengthAdjust="spacing" textLength="269.0781" x="226.4766" y="1001.9839">Request suggestions from engine</text><rect fill="#F1F1F1" height="38.625" rx="12.5" ry="12.5" style="stroke:#333333;stroke-width:0.5;" width="180.0156" x="271.0078" y="1050.1597"/><text fill="#000000" font-family="sans-serif" font-size="16" lengthAdjust="spacing" textLength="160.0156" x="281.0078" y="1075.0112">Display suggestions</text><rect fill="#F1F1F1" height="38.625" rx="12.5" ry="12.5" style="stroke:#333333;stroke-width:0.5;" width="178.2344" x="271.8984" y="1108.7847"/><text fill="#000000" font-family="sans-serif" font-size="16" lengthAdjust="spacing" textLength="158.2344" x="281.8984" y="1133.6362">Get user's selection</text><rect fill="#F1F1F1" height="38.625" rx="12.5" ry="12.5" style="stroke:#333333;stroke-width:0.5;" width="278.6797" x="221.6758" y="1167.4097"/><text fill="#000000" font-family="sans-serif" font-size="16" lengthAdjust="spacing" textLength="258.6797" x="231.6758" y="1192.2612">Replace last word with selection</text><rect fill="#F1F1F1" height="38.625" rx="12.5" ry="12.5" style="stroke:#333333;stroke-width:0.5;" width="274.7109" x="223.6602" y="1226.0347"/><text fill="#000000" font-family="sans-serif" font-size="16" lengthAdjust="spacing" textLength="254.7109" x="233.6602" y="1250.8862">Add selected word to dictionary</text><rect fill="#F1F1F1" height="38.625" rx="12.5" ry="12.5" style="stroke:#333333;stroke-width:0.5;" width="349.6328" x="535.5547" y="869.5073"/><text fill="#000000" font-family="sans-serif" font-size="16" lengthAdjust="spacing" textLength="329.6328" x="545.5547" y="894.3589">Process input and append to current text</text><rect fill="#F1F1F1" height="38.625" rx="12.5" ry="12.5" style="stroke:#333333;stroke-width:0.5;" width="326.0078" x="547.3672" y="991.5347"/><text fill="#000000" font-family="sans-serif" font-size="16" lengthAdjust="spacing" textLength="306.0078" x="557.3672" y="1016.3862">Add last completed word to dictionary</text><polygon fill="#D3D3D3" points="664.3594,943.1323,756.3828,943.1323,768.3828,955.1323,756.3828,967.1323,664.3594,967.1323,652.3594,955.1323,664.3594,943.1323" style="stroke:#333333;stroke-width:0.5;"/><text fill="#000000" font-family="sans-serif" font-size="11" lengthAdjust="spacing" textLength="19.0083" x="714.3711" y="977.3428">yes</text><text fill="#000000" font-family="sans-serif" font-size="16" lengthAdjust="spacing" textLength="92.0234" x="664.3594" y="960.6714">input == ' '</text><polygon fill="#D3D3D3" points="710.3711,1053.9644,722.3711,1065.9644,710.3711,1077.9644,698.3711,1065.9644,710.3711,1053.9644" style="stroke:#333333;stroke-width:0.5;"/><polygon fill="#D3D3D3" points="475.124,1274.6597,487.124,1286.6597,475.124,1298.6597,463.124,1286.6597,475.124,1274.6597" style="stroke:#333333;stroke-width:0.5;"/><polygon fill="#D3D3D3" points="413.4717,545.2969,536.7764,545.2969,548.7764,557.2969,536.7764,569.2969,413.4717,569.2969,401.4717,557.2969,413.4717,545.2969" style="stroke:#333333;stroke-width:0.5;"/><text fill="#000000" font-family="sans-serif" font-size="11" lengthAdjust="spacing" textLength="19.0083" x="479.124" y="579.5073">yes</text><text fill="#000000" font-family="sans-serif" font-size="16" lengthAdjust="spacing" textLength="123.3047" x="413.4717" y="562.8359">is app running?</text><text fill="#000000" font-family="sans-serif" font-size="11" lengthAdjust="spacing" textLength="13.7017" x="387.77" y="554.7026">no</text><ellipse cx="475.124" cy="1363.6597" fill="none" rx="11" ry="11" style="stroke:#222222;stroke-width:1;"/><ellipse cx="475.124" cy="1363.6597" fill="#222222" rx="6" ry="6" style="stroke:#222222;stroke-width:1;"/><line style="stroke:#333333;stroke-width:1;" x1="475.124" x2="475.124" y1="30" y2="50"/><polygon fill="#333333" points="471.124,40,475.124,50,479.124,40,475.124,44" style="stroke:#333333;stroke-width:1;"/><line style="stroke:#333333;stroke-width:1;" x1="475.124" x2="475.124" y1="88.625" y2="108.625"/><polygon fill="#333333" points="471.124,98.625,475.124,108.625,479.124,98.625,475.124,102.625" style="stroke:#333333;stroke-width:1;"/><line style="stroke:#333333;stroke-width:1;" x1="475.124" x2="475.124" y1="147.25" y2="167.25"/><polygon fill="#333333" points="471.124,157.25,475.124,167.25,479.124,157.25,475.124,161.25" style="stroke:#333333;stroke-width:1;"/><line style="stroke:#333333;stroke-width:1;" x1="475.124" x2="475.124" y1="205.875" y2="225.875"/><polygon fill="#333333" points="471.124,215.875,475.124,225.875,479.124,215.875,475.124,219.875" style="stroke:#333333;stroke-width:1;"/><line style="stroke:#333333;stroke-width:1;" x1="475.124" x2="475.124" y1="264.5" y2="284.5"/><polygon fill="#333333" points="471.124,274.5,475.124,284.5,479.124,274.5,475.124,278.5" style="stroke:#333333;stroke-width:1;"/><line style="stroke:#333333;stroke-width:1;" x1="475.124" x2="475.124" y1="323.125" y2="343.125"/><polygon fill="#333333" points="471.124,333.125,475.124,343.125,479.124,333.125,475.124,337.125" style="stroke:#333333;stroke-width:1;"/><line style="stroke:#333333;stroke-width:1;" x1="475.124" x2="475.124" y1="381.75" y2="401.75"/><polygon fill="#333333" points="471.124,391.75,475.124,401.75,479.124,391.75,475.124,395.75" style="stroke:#333333;stroke-width:1;"/><line style="stroke:#333333;stroke-width:1;" x1="475.124" x2="475.124" y1="440.375" y2="460.375"/><polygon fill="#333333" points="471.124,450.375,475.124,460.375,479.124,450.375,475.124,454.375" style="stroke:#333333;stroke-width:1;"/><line style="stroke:#333333;stroke-width:1;" x1="475.124" x2="475.124" y1="639.6323" y2="659.6323"/><polygon fill="#333333" points="471.124,649.6323,475.124,659.6323,479.124,649.6323,475.124,653.6323" style="stroke:#333333;stroke-width:1;"/><line style="stroke:#333333;stroke-width:1;" x1="475.124" x2="475.124" y1="698.2573" y2="718.2573"/><polygon fill="#333333" points="471.124,708.2573,475.124,718.2573,479.124,708.2573,475.124,712.2573" style="stroke:#333333;stroke-width:1;"/><line style="stroke:#333333;stroke-width:1;" x1="475.124" x2="475.124" y1="756.8823" y2="776.8823"/><polygon fill="#333333" points="471.124,766.8823,475.124,776.8823,479.124,766.8823,475.124,770.8823" style="stroke:#333333;stroke-width:1;"/><line style="stroke:#333333;stroke-width:1;" x1="118.7383" x2="118.7383" y1="942.1323" y2="977.1323"/><polygon fill="#333333" points="114.7383,967.1323,118.7383,977.1323,122.7383,967.1323,118.7383,971.1323" style="stroke:#333333;stroke-width:1;"/><line style="stroke:#333333;stroke-width:1;" x1="361.0156" x2="361.0156" y1="942.1323" y2="977.1323"/><polygon fill="#333333" points="357.0156,967.1323,361.0156,977.1323,365.0156,967.1323,361.0156,971.1323" style="stroke:#333333;stroke-width:1;"/><line style="stroke:#333333;stroke-width:1;" x1="361.0156" x2="361.0156" y1="1015.7573" y2="1050.1597"/><polygon fill="#333333" points="357.0156,1040.1597,361.0156,1050.1597,365.0156,1040.1597,361.0156,1044.1597" style="stroke:#333333;stroke-width:1;"/><line style="stroke:#333333;stroke-width:1;" x1="361.0156" x2="361.0156" y1="1088.7847" y2="1108.7847"/><polygon fill="#333333" points="357.0156,1098.7847,361.0156,1108.7847,365.0156,1098.7847,361.0156,1102.7847" style="stroke:#333333;stroke-width:1;"/><line style="stroke:#333333;stroke-width:1;" x1="361.0156" x2="361.0156" y1="1147.4097" y2="1167.4097"/><polygon fill="#333333" points="357.0156,1157.4097,361.0156,1167.4097,365.0156,1157.4097,361.0156,1161.4097" style="stroke:#333333;stroke-width:1;"/><line style="stroke:#333333;stroke-width:1;" x1="361.0156" x2="361.0156" y1="1206.0347" y2="1226.0347"/><polygon fill="#333333" points="357.0156,1216.0347,361.0156,1226.0347,365.0156,1216.0347,361.0156,1220.0347" style="stroke:#333333;stroke-width:1;"/><line style="stroke:#333333;stroke-width:1;" x1="181.2012" x2="118.7383" y1="881.5073" y2="881.5073"/><line style="stroke:#333333;stroke-width:1;" x1="118.7383" x2="118.7383" y1="881.5073" y2="903.5073"/><polygon fill="#333333" points="114.7383,893.5073,118.7383,903.5073,122.7383,893.5073,118.7383,897.5073" style="stroke:#333333;stroke-width:1;"/><line style="stroke:#333333;stroke-width:1;" x1="298.5527" x2="361.0156" y1="881.5073" y2="881.5073"/><line style="stroke:#333333;stroke-width:1;" x1="361.0156" x2="361.0156" y1="881.5073" y2="903.5073"/><polygon fill="#333333" points="357.0156,893.5073,361.0156,903.5073,365.0156,893.5073,361.0156,897.5073" style="stroke:#333333;stroke-width:1;"/><line style="stroke:#333333;stroke-width:1;" x1="361.0156" x2="361.0156" y1="1264.6597" y2="1286.6597"/><line style="stroke:#333333;stroke-width:1;" x1="361.0156" x2="463.124" y1="1286.6597" y2="1286.6597"/><polygon fill="#333333" points="453.124,1282.6597,463.124,1286.6597,453.124,1290.6597,457.124,1286.6597" style="stroke:#333333;stroke-width:1;"/><line style="stroke:#333333;stroke-width:1;" x1="710.3711" x2="710.3711" y1="967.1323" y2="991.5347"/><polygon fill="#333333" points="706.3711,981.5347,710.3711,991.5347,714.3711,981.5347,710.3711,985.5347" style="stroke:#333333;stroke-width:1;"/><line style="stroke:#333333;stroke-width:1;" x1="768.3828" x2="883.375" y1="955.1323" y2="955.1323"/><polygon fill="#333333" points="879.375,1000.8472,883.375,1010.8472,887.375,1000.8472,883.375,1004.8472" style="stroke:#333333;stroke-width:1;"/><line style="stroke:#333333;stroke-width:1;" x1="883.375" x2="883.375" y1="955.1323" y2="1065.9644"/><line style="stroke:#333333;stroke-width:1;" x1="883.375" x2="722.3711" y1="1065.9644" y2="1065.9644"/><polygon fill="#333333" points="732.3711,1061.9644,722.3711,1065.9644,732.3711,1069.9644,728.3711,1065.9644" style="stroke:#333333;stroke-width:1;"/><line style="stroke:#333333;stroke-width:1;" x1="710.3711" x2="710.3711" y1="1030.1597" y2="1053.9644"/><polygon fill="#333333" points="706.3711,1043.9644,710.3711,1053.9644,714.3711,1043.9644,710.3711,1047.9644" style="stroke:#333333;stroke-width:1;"/><line style="stroke:#333333;stroke-width:1;" x1="710.3711" x2="710.3711" y1="908.1323" y2="943.1323"/><polygon fill="#333333" points="706.3711,933.1323,710.3711,943.1323,714.3711,933.1323,710.3711,937.1323" style="stroke:#333333;stroke-width:1;"/><line style="stroke:#333333;stroke-width:1;" x1="379.4482" x2="239.877" y1="847.5073" y2="847.5073"/><line style="stroke:#333333;stroke-width:1;" x1="239.877" x2="239.877" y1="847.5073" y2="869.5073"/><polygon fill="#333333" points="235.877,859.5073,239.877,869.5073,243.877,859.5073,239.877,863.5073" style="stroke:#333333;stroke-width:1;"/><line style="stroke:#333333;stroke-width:1;" x1="570.7998" x2="710.3711" y1="847.5073" y2="847.5073"/><line style="stroke:#333333;stroke-width:1;" x1="710.3711" x2="710.3711" y1="847.5073" y2="869.5073"/><polygon fill="#333333" points="706.3711,859.5073,710.3711,869.5073,714.3711,859.5073,710.3711,863.5073" style="stroke:#333333;stroke-width:1;"/><line style="stroke:#333333;stroke-width:1;" x1="710.3711" x2="710.3711" y1="1077.9644" y2="1286.6597"/><line style="stroke:#333333;stroke-width:1;" x1="710.3711" x2="487.124" y1="1286.6597" y2="1286.6597"/><polygon fill="#333333" points="497.124,1282.6597,487.124,1286.6597,497.124,1290.6597,493.124,1286.6597" style="stroke:#333333;stroke-width:1;"/><line style="stroke:#333333;stroke-width:1;" x1="475.124" x2="475.124" y1="815.5073" y2="835.5073"/><polygon fill="#333333" points="471.124,825.5073,475.124,835.5073,479.124,825.5073,475.124,829.5073" style="stroke:#333333;stroke-width:1;"/><line style="stroke:#333333;stroke-width:1;" x1="475.124" x2="475.124" y1="569.2969" y2="601.0073"/><polygon fill="#333333" points="471.124,591.0073,475.124,601.0073,479.124,591.0073,475.124,595.0073" style="stroke:#333333;stroke-width:1;"/><line style="stroke:#333333;stroke-width:1;" x1="475.124" x2="475.124" y1="1298.6597" y2="1308.6597"/><line style="stroke:#333333;stroke-width:1;" x1="475.124" x2="901.375" y1="1308.6597" y2="1308.6597"/><polygon fill="#333333" points="897.375,935.23,901.375,925.23,905.375,935.23,901.375,931.23" style="stroke:#333333;stroke-width:1;"/><line style="stroke:#333333;stroke-width:1;" x1="901.375" x2="901.375" y1="557.2969" y2="1308.6597"/><line style="stroke:#333333;stroke-width:1;" x1="901.375" x2="548.7764" y1="557.2969" y2="557.2969"/><polygon fill="#333333" points="558.7764,553.2969,548.7764,557.2969,558.7764,561.2969,554.7764,557.2969" style="stroke:#333333;stroke-width:1;"/><line style="stroke:#333333;stroke-width:1;" x1="401.4717" x2="27" y1="557.2969" y2="557.2969"/><polygon fill="#333333" points="23,921.23,27,931.23,31,921.23,27,925.23" style="stroke:#333333;stroke-width:1;"/><line style="stroke:#333333;stroke-width:1;" x1="27" x2="27" y1="557.2969" y2="1320.6597"/><line style="stroke:#333333;stroke-width:1;" x1="27" x2="475.124" y1="1320.6597" y2="1320.6597"/><line style="stroke:#333333;stroke-width:1;" x1="475.124" x2="475.124" y1="1320.6597" y2="1352.6597"/><polygon fill="#333333" points="471.124,1342.6597,475.124,1352.6597,479.124,1342.6597,475.124,1346.6597" style="stroke:#333333;stroke-width:1;"/><line style="stroke:#333333;stroke-width:1;" x1="475.124" x2="475.124" y1="499" y2="545.2969"/><polygon fill="#333333" points="471.124,535.2969,475.124,545.2969,479.124,535.2969,475.124,539.2969" style="stroke:#333333;stroke-width:1;"/><!--SRC=[ZPFRRXCn48Rlzoc6zYB9HP5G9IvsrQBG25G9f0fu0SkUJOOwOsFFiWJ4kpFURfgDcWAx5tkOtx-_EJZV4qUJp1QC5VfEidiNM3xJJuHNhwly9BfCAVGtmOS4vvV3TKAq8hCDxDuQUxzEeMCtBbXTblil2q9ocFxbVafLPJ59ggg-PH8oll2R63rP8nGORDZ6mCYIc-h2XPulhglw9g4Hr1ZRXEN5cvnnghZbhsW574PaXsm9Cn1BW2_uG-uIEhB5VXdZrDPuNpP_cJgUBmw1IjCG6d3EFXfYM4u0FuGGp-1N1T1lo2FCAHSFK0ycNhzPWFwOxp0lL09GhoX7RtPWkvGqBH050iCEOj9K1LejZXQkasRGxnc6jUzHeCluh83QOViX2gRKRglEYY0Rv0d4g1naLrSmUp4x8PcmjiJ63wJDOp1BYEC7-enJk_FPnACmQti4Ukq-j9haKUe7m_eJVkjGXRbRh_MfnSqFUkGrCJPFkIRAvdZ7KgLPXemUXqOVRQDhBKwWUfBDIUdIkV4_kWUfJj0uEYRjzaeTCMghGoKuxFElxrAmc1zRectMsL1zCJfLXkE-m3DzALm3VZaT7l-RRdpJvpYhXVHtEOCX_W40]--></g></svg>